<svg width="112" height="28" viewBox="0 0 112 28" fill="none" xmlns="http://www.w3.org/2000/svg">
<g clip-path="url(#clip0_3138_9584)">
<path d="M35.5598 0C36.0218 0.3696 36.4838 0.7392 36.9598 1.12C37.1446 1.0276 37.3294 0.9352 37.5198 0.84C38.752 1.91011 39.1461 2.65264 39.4798 4.2C39.7801 4.21732 40.0804 4.23465 40.3898 4.2525C41.6632 4.5284 41.8528 4.81949 42.5598 5.88C43.752 7.65021 45.0337 8.06187 47.0398 8.68C48.5113 9.13954 49.6246 9.49883 50.3998 10.92C50.3825 11.2376 50.3651 11.5552 50.3473 11.8825C50.2954 12.8564 50.2954 12.8564 50.8023 13.3394C51.1531 13.6288 51.5114 13.9093 51.8764 14.1805C52.3598 14.56 52.3598 14.56 52.7623 15.225C53.2222 15.8076 53.2222 15.8076 54.3023 15.7325C54.4983 15.722 54.6943 15.7116 54.8962 15.7008C55.4955 15.6779 55.9915 15.7706 56.5598 15.96C56.5309 15.7174 56.502 15.4749 56.4723 15.225C56.5663 14.2101 56.814 13.7138 57.5103 12.9708C58.8807 11.8404 60.522 11.6043 62.256 11.6605C64.1477 11.9136 66.1509 12.5906 67.4798 14C67.8968 14.6393 68.2471 15.2807 68.5998 15.96C69.0849 15.934 69.0849 15.934 69.5798 15.9075C70.5188 15.8975 71.1723 16.0553 72.0298 16.4325C72.3763 16.5538 72.7228 16.675 73.0798 16.8C73.7855 16.482 73.7855 16.482 74.1998 15.96C74.0785 15.7272 74.0785 15.7272 73.9548 15.4897C73.8508 15.2868 73.7469 15.084 73.6398 14.875C73.5358 14.6736 73.4319 14.4722 73.3248 14.2647C73.0798 13.72 73.0798 13.72 73.0798 13.16C72.8199 13.1369 72.56 13.1138 72.2923 13.09C71.3998 12.88 71.3998 12.88 70.8573 12.425C70.4224 11.4528 70.5889 10.8214 70.8398 9.8C71.3471 8.51693 72.1126 8.03005 73.3281 7.48344C74.6237 7.038 75.6102 7.19633 76.8948 7.595C78.42 8.44235 79.2424 9.70152 80.0798 11.2C80.4956 11.0614 80.4956 11.0614 80.9198 10.92C82.5601 10.8106 83.6471 10.9387 85.1198 11.76C86.4132 13.1215 86.5546 14.1165 86.5198 15.96C86.797 15.96 87.0742 15.96 87.3598 15.96C87.3309 15.6135 87.302 15.267 87.2723 14.91C87.2688 13.923 87.2887 13.795 88.0073 13.0375C89.2028 12.3424 89.9934 12.3141 91.3498 12.3725C92.8849 12.4094 92.8849 12.4094 94.2198 11.76C95.5837 10.809 97.255 11.0359 98.8398 11.2C99.5762 11.381 100.281 11.6043 100.999 11.8475C102.037 12.1592 102.802 12.1913 103.88 12.04C104.447 11.3904 104.447 11.3904 104.72 10.64C105 10.36 105 10.36 105.91 10.2725C107.143 10.3753 107.518 10.5914 108.36 11.48C108.902 12.3705 109.188 12.9732 109.252 14.0175C109.526 15.0081 109.747 15.0936 110.6 15.61C110.802 15.7183 111.004 15.8266 111.212 15.9381C111.72 16.24 111.72 16.24 112 16.8C112.035 17.7975 112.035 17.7975 112 18.76C111.907 18.8524 111.815 18.9448 111.72 19.04C111.688 19.5411 111.658 20.0423 111.639 20.544C111.463 25.0446 111.463 25.0446 109.672 26.705C108.319 27.8344 106.836 28.0699 105.113 28.072C104.744 28.0738 104.374 28.0756 103.994 28.0775C103.586 28.0767 103.178 28.0758 102.77 28.0749C102.336 28.0759 101.901 28.0772 101.466 28.0787C100.272 28.0821 99.0785 28.0821 97.8846 28.0814C96.5969 28.0813 95.3091 28.0844 94.0213 28.087C91.4989 28.0917 88.9765 28.0932 86.4541 28.0935C84.4044 28.0938 82.3548 28.095 80.3052 28.0967C74.4963 28.1017 68.6874 28.1043 62.8784 28.1038C62.5653 28.1038 62.2521 28.1038 61.9295 28.1038C61.4592 28.1037 61.4592 28.1037 60.9794 28.1037C55.8944 28.1035 50.8094 28.1088 45.7244 28.1167C40.5052 28.1248 35.2861 28.1286 30.067 28.1282C27.1359 28.128 24.2049 28.1295 21.2739 28.1355C18.7792 28.1406 16.2846 28.1419 13.79 28.138C12.5167 28.1362 11.2434 28.1362 9.97016 28.141C8.80521 28.1454 7.64038 28.1447 6.47543 28.1398C6.05339 28.1389 5.63133 28.1399 5.2093 28.143C4.63673 28.147 4.06413 28.1434 3.49157 28.1394C3.17319 28.1395 2.85482 28.1396 2.5268 28.1397C1.4912 27.9689 1.02573 27.6037 0.279797 26.88C-0.0545054 26.2114 -0.0409759 25.7869 -0.0497638 25.0404C-0.0533577 24.775 -0.0569515 24.5096 -0.0606543 24.2361C-0.0627226 23.9486 -0.064791 23.661 -0.066922 23.3647C-0.0691821 23.0698 -0.0714422 22.775 -0.0737708 22.4712C-0.0776476 21.8465 -0.0806492 21.2218 -0.0828497 20.5971C-0.0876739 19.6408 -0.0999616 18.6848 -0.112313 17.7286C-0.115148 17.1223 -0.117532 16.516 -0.119422 15.9097C-0.124324 15.6232 -0.129227 15.3368 -0.134277 15.0417C-0.128214 13.064 -0.128214 13.064 0.51632 12.1377C1.34279 11.6204 1.83877 11.6349 2.7998 11.76C3.5687 12.0564 3.5687 12.0564 4.3223 12.4425C6.00414 13.2487 6.00414 13.2487 7.8398 13.44C8.88214 12.9256 9.65925 12.1842 10.4648 11.3575C12.3076 9.55858 14.3664 8.61323 16.7998 7.84C16.615 7.2856 16.4302 6.7312 16.2398 6.16C17.1638 6.16 18.0878 6.16 19.0398 6.16C18.8608 5.88857 18.6817 5.61715 18.4973 5.3375C17.8124 4.1565 17.7008 3.02535 17.6398 1.68C17.9695 1.82185 17.9695 1.82185 18.3059 1.96656C21.7654 3.50807 21.7654 3.50807 25.4798 3.64C25.9297 3.42582 26.3727 3.19679 26.8098 2.9575C29.0045 1.84287 31.4766 2.00984 33.8853 1.99527C34.4611 1.99479 34.4611 1.99479 34.9998 1.68C35.2033 1.12591 35.3913 0.565727 35.5598 0Z" fill="#FBCF09"/>
<path d="M36.4002 4.47998C36.5388 4.89578 36.5388 4.89578 36.6802 5.31998C36.5878 5.50478 36.4954 5.68958 36.4002 5.87998C36.2154 5.87998 36.0306 5.87998 35.8402 5.87998C35.8402 6.34198 35.8402 6.80398 35.8402 7.27998C35.9499 7.14716 36.0596 7.01433 36.1727 6.87748C36.8144 6.32428 37.2372 6.20213 38.0802 6.15998C38.3602 6.43998 38.6402 6.71998 38.9202 6.99998C39.1858 6.99998 39.4515 6.99998 39.7252 6.99998C40.7462 6.99998 41.1975 7.22613 42.0002 7.83998C42.0002 8.02478 42.0002 8.20958 42.0002 8.39998C42.1625 8.47988 42.3248 8.55979 42.4921 8.64211C43.0737 8.93647 43.642 9.2455 44.2096 9.56592C44.5073 9.73375 44.5073 9.73375 44.8111 9.90498C45.0154 10.0205 45.2197 10.136 45.4302 10.255C45.6388 10.3726 45.8474 10.4903 46.0624 10.6115C46.5751 10.9008 47.0877 11.1903 47.6002 11.48C47.6702 13.055 47.6702 13.055 47.0402 14C46.8554 14 46.6706 14 46.4802 14C46.2954 13.7228 46.1106 13.4456 45.9202 13.16C45.3798 13.0385 45.3798 13.0385 44.7652 13.0375C43.3436 12.9315 42.3952 12.4561 41.1602 11.76C41.4746 12.0349 41.7897 12.3089 42.1052 12.5825C42.2806 12.7352 42.456 12.8878 42.6367 13.0451C43.6174 13.8461 44.4 13.7429 45.6402 13.72C45.7326 14.0896 45.825 14.4592 45.9202 14.84C45.2962 14.8628 44.6719 14.879 44.0477 14.8925C43.5263 14.9071 43.5263 14.9071 42.9944 14.922C41.9395 14.835 41.4324 14.6376 40.6002 14C40.5078 13.8152 40.4154 13.6304 40.3202 13.44C39.6703 13.3619 39.6703 13.3619 38.9027 13.3525C37.3003 13.2337 36.2072 12.828 35.0002 11.76C34.4402 10.9725 34.4402 10.9725 34.1602 10.36C34.1544 10.6372 34.1486 10.9144 34.1427 11.2C33.9708 12.4561 33.263 13.0924 32.42 13.989C31.1487 15.4412 30.7522 16.8655 30.5202 18.76C30.9555 18.7454 30.9555 18.7454 31.3996 18.7304C31.7831 18.7226 32.1666 18.7149 32.5502 18.7075C32.7411 18.7004 32.932 18.6934 33.1288 18.6862C33.9897 18.6736 34.6212 18.7098 35.395 19.1023C35.9311 19.7017 36.043 20.1064 36.1727 20.895C36.2632 21.7283 36.2632 21.7283 36.6802 22.4C38.4201 22.4944 39.942 22.2247 41.6327 21.84C47.081 20.6889 47.081 20.6889 49.4902 21.7875C50.4002 22.4 50.4002 22.4 50.6802 23.24C49.8402 23.24 49.8402 23.24 49.0002 22.68C46.6642 22.419 44.3984 22.8363 42.1227 23.3275C41.8298 23.3872 41.5369 23.447 41.2351 23.5085C39.5452 23.8599 37.896 24.2752 36.2482 24.79C35.4548 24.9399 34.9298 24.8741 34.1602 24.64C33.6439 24.1008 33.6439 24.1008 33.1802 23.4325C32.2635 22.1791 31.4693 21.223 29.9602 20.72C28.1922 20.5292 26.5105 20.8115 24.7802 21.14C19.7588 22.0759 19.7588 22.0759 17.3602 20.44C16.6602 19.81 16.6602 19.81 16.2402 19.32C16.2174 19.7689 16.2012 20.2182 16.1877 20.6675C16.1779 20.9176 16.1682 21.1677 16.1581 21.4254C16.1804 22.1323 16.1804 22.1323 16.6285 22.6133C18.012 23.6752 19.9385 23.3748 21.5879 23.1653C23.3972 22.8891 25.1895 22.5598 26.9546 22.074C27.9293 21.8559 28.2247 21.8401 29.1202 22.12C28.9354 22.3625 28.7506 22.6051 28.5602 22.855C27.9646 23.86 27.8916 24.3395 28.0002 25.48C27.0261 25.0903 26.7456 24.7429 26.3202 23.8C26.013 23.8978 25.7059 23.9956 25.3894 24.0964C24.9822 24.2251 24.5749 24.3538 24.1677 24.4825C23.9657 24.5469 23.7638 24.6113 23.5557 24.6777C21.1009 25.4512 18.663 25.9952 16.1986 24.9495C14.8896 24.168 14.0845 22.9899 13.5277 21.595C13.4064 21.3062 13.2851 21.0175 13.1602 20.72C12.3218 20.4405 11.6015 20.3917 10.7243 20.3587C7.7336 20.2455 4.74148 19.9944 2.24018 18.2C1.90986 17.6039 1.90986 17.6039 1.68018 17.08C1.93789 17.181 2.19559 17.2821 2.46111 17.3862C5.38226 18.479 8.23447 19.1262 11.2877 18.0425C12.5129 17.4792 13.5135 16.7038 14.5525 15.8528C15.8154 14.8454 16.8608 14.384 18.4802 14.56C19.1452 14.84 19.1452 14.84 19.6002 15.12C19.1059 14.2778 18.7022 13.5902 17.8852 13.0375C15.8437 12.6381 14.0831 13.132 12.2677 14.0722C12.1002 14.1407 11.9327 14.2093 11.7602 14.28C11.483 14.1414 11.483 14.1414 11.2002 14C11.6003 13.7396 12.0035 13.4839 12.4077 13.23C12.6318 13.087 12.856 12.9441 13.0869 12.7969C15.5327 11.5198 17.6758 11.0508 20.4227 11.0425C25.4397 10.9176 28.5466 9.55963 32.6103 6.63904C33.8196 5.82292 35.1065 5.15143 36.4002 4.47998Z" fill="#FCFBFB"/>
<path d="M36.4 2.24002C36.5213 2.42482 36.6426 2.60962 36.7675 2.80002C36.9235 2.98482 37.0794 3.16962 37.24 3.36002C37.5172 3.36002 37.7944 3.36002 38.08 3.36002C38.6355 4.17681 38.6366 4.51469 38.535 5.53002C38.4773 5.83032 38.4195 6.13062 38.36 6.44002C38.1059 6.46312 37.8518 6.48622 37.59 6.51002C36.5678 6.74592 36.2226 7.05009 35.56 7.84002C35.6524 7.19322 35.7448 6.54642 35.84 5.88002C36.0248 5.88002 36.2096 5.88002 36.4 5.88002C36.4 5.51042 36.4 5.14082 36.4 4.76002C33.7932 5.54207 31.4282 6.68617 29.1375 8.15502C26.2295 9.90167 23.2882 10.2316 19.9668 10.4489C17.7674 10.5955 15.6414 10.751 13.7375 11.9525C13.1174 12.3408 13.1174 12.3408 12.6 12.6C12.4152 12.5076 12.2304 12.4152 12.04 12.32C14.3927 10.0719 16.9547 9.09542 20.16 8.68002C19.8828 8.49522 19.6056 8.31042 19.32 8.12002C19.0348 7.84535 18.7535 7.56646 18.48 7.28002C18.8323 7.2728 19.1846 7.26558 19.5475 7.25815C22.6945 7.16401 25.5445 6.78552 28.56 5.88002C28.3345 5.92442 28.1089 5.96881 27.8764 6.01455C26.7031 6.18585 25.5617 6.23278 24.3775 6.24752C24.1612 6.25564 23.9448 6.26376 23.7218 6.27213C21.8815 6.29235 20.7238 5.80212 19.3375 4.55002C19.2394 4.43452 19.1412 4.31902 19.04 4.20002C19.1324 4.01522 19.2248 3.83042 19.32 3.64002C19.4565 3.72087 19.5929 3.80172 19.7335 3.88502C21.6987 4.91407 23.5726 5.05266 25.76 4.76002C26.529 4.46393 26.529 4.46393 27.265 4.07752C29.2781 3.09574 31.3757 3.18874 33.572 3.18235C33.9984 3.17826 33.9984 3.17826 34.4335 3.17408C34.6907 3.17566 34.9479 3.17724 35.2129 3.17887C35.4199 3.14625 35.6268 3.11363 35.84 3.08002C36.0248 2.80282 36.2096 2.52562 36.4 2.24002Z" fill="#32398D"/>
<path d="M75.9006 9.35595C76.8218 9.63625 77.0881 10.0944 77.5598 10.92C78.6798 13.3933 78.6798 13.3933 78.6798 14.28C78.8422 14.179 79.0046 14.0779 79.172 13.9738C81.4506 12.6202 81.4506 12.6202 82.8798 12.88C83.6673 13.1775 83.6673 13.1775 84.2798 13.72C84.5948 14.6125 84.5948 14.6125 84.5598 15.68C84.2544 16.1543 84.2544 16.1543 83.8653 16.6535C82.8873 18.151 82.9831 19.5936 83.0373 21.3325C83.0389 21.6312 83.0406 21.9299 83.0422 22.2376C83.0655 23.7242 83.1534 24.624 83.7198 26.04C82.149 26.04 80.5782 26.04 78.9598 26.04C79.0522 25.6704 79.1446 25.3008 79.2398 24.92C79.2554 24.4062 79.2573 23.8918 79.2496 23.3778C79.2535 17.7854 79.2535 17.7854 80.6573 16.0825C81.2796 15.4864 81.2796 15.4864 81.7598 15.12C81.0455 15.5431 80.3521 15.9656 79.6773 16.45C78.9598 16.8 78.9598 16.8 78.1198 16.8175C76.2031 16.1387 75.4917 14.1757 74.6548 12.4567C74.1341 11.6593 73.6415 11.3452 72.7998 10.92C73.4655 9.38387 74.2378 9.08237 75.9006 9.35595Z" fill="#30388D"/>
<path d="M105.84 12.32C106.68 12.6 106.68 12.6 107.24 13.44C107.362 14.385 107.362 14.385 107.24 15.4C106.476 16.3245 105.858 16.9815 104.658 17.1861C101.778 17.3723 99.6336 16.1531 97.1599 14.84C97.2785 14.9554 97.3972 15.0708 97.5194 15.1897C99.1356 16.9953 99.0806 18.7308 99.0674 21.07C99.0742 21.7715 99.0818 22.4729 99.0904 23.1744C99.0899 23.4827 99.0895 23.791 99.0891 24.1087C99.0944 24.981 99.0944 24.981 99.3999 26.04C97.8291 26.04 96.2583 26.04 94.6399 26.04C94.8247 25.6704 95.0095 25.3008 95.1999 24.92C95.3203 23.6689 95.2907 22.4138 95.2874 21.1575C95.2919 20.8137 95.2964 20.4699 95.3011 20.1157C95.3012 19.7842 95.3014 19.4527 95.3016 19.1111C95.3024 18.8088 95.3033 18.5066 95.3041 18.1952C95.1865 17.2528 94.8753 16.746 94.3599 15.96C94.2199 15.1025 94.2199 15.1025 94.3599 14.28C94.9441 13.5638 95.3938 13.2241 96.3155 13.0627C97.5047 13.0142 98.4866 13.1983 99.6099 13.58C101.282 14.1339 102.973 14.1886 104.72 14C105.595 13.5423 105.595 13.5423 105.752 12.845C105.781 12.6718 105.81 12.4985 105.84 12.32Z" fill="#2E388D"/>
<path d="M92.3998 14.28C93.1173 14.7 93.1173 14.7 93.5198 15.4C93.6998 16.7951 93.6716 17.3616 92.9948 18.6025C92.3998 19.32 92.3998 19.32 91.8398 19.6C92.0708 19.7732 92.3018 19.9465 92.5398 20.125C93.2625 20.8436 93.3557 21.3918 93.3798 22.4C93.3152 23.5435 93.1926 24.3279 92.3998 25.2C90.5759 26.2885 88.8708 26.2565 86.7998 26.04C85.7076 25.7086 85.0407 25.2382 84.4198 24.255C84.1098 22.6277 84.7335 21.3285 85.3998 19.88C85.0302 19.88 84.6606 19.88 84.2798 19.88C84.7698 18.515 84.7698 18.515 85.3998 18.2C87.3589 18.0736 87.3589 18.0736 88.3398 18.515C88.7598 19.04 88.7598 19.04 88.8648 19.88C88.7598 20.72 88.7598 20.72 88.1998 21.56C88.1777 22.213 88.1751 22.8671 88.1998 23.52C88.6618 23.52 89.1238 23.52 89.5998 23.52C89.6922 22.596 89.7846 21.672 89.8798 20.72C89.695 20.72 89.5102 20.72 89.3198 20.72C89.2673 19.775 89.2673 19.775 89.3198 18.76C89.597 18.5752 89.8742 18.3904 90.1598 18.2C90.2933 17.6029 90.2933 17.6029 90.2648 16.94C90.267 16.7177 90.2691 16.4953 90.2713 16.2662C90.2161 15.9761 90.2161 15.9761 90.1598 15.68C89.8826 15.4952 89.6054 15.3104 89.3198 15.12C89.3198 14.9352 89.3198 14.7504 89.3198 14.56C90.2901 14.0749 91.3389 14.15 92.3998 14.28Z" fill="#2F388D"/>
<path d="M108.92 16.8C109.197 16.9848 109.475 17.1696 109.76 17.36C109.715 17.517 109.669 17.674 109.622 17.8358C109.471 18.5204 109.449 19.1261 109.451 19.8264C109.446 20.0818 109.442 20.3371 109.438 20.6002C109.431 21.1339 109.43 21.6677 109.434 22.2015C109.389 24.1037 109.389 24.1037 108.841 24.8468C107.512 25.9901 106.326 26.0957 104.633 26.1275C104.27 26.138 103.907 26.1484 103.533 26.1592C102.251 26.0141 101.434 25.5534 100.52 24.64C100.419 22.5516 100.419 22.5516 101.08 21.56C100.895 21.3752 100.711 21.1904 100.52 21C100.333 19.2821 100.333 19.2821 100.94 18.4975C101.934 18.0753 102.818 17.9975 103.88 18.2C104.58 18.725 104.58 18.725 105 19.32C105 19.5048 105 19.6896 105 19.88C104.631 19.9724 104.261 20.0648 103.88 20.16C103.88 20.3448 103.88 20.5296 103.88 20.72C104.25 20.8124 104.619 20.9048 105 21C105 21.462 105 21.924 105 22.4C104.446 22.6772 104.446 22.6772 103.88 22.96C103.88 23.1448 103.88 23.3296 103.88 23.52C104.435 23.52 104.989 23.52 105.56 23.52C105.564 23.1522 105.568 22.7844 105.572 22.4055C105.585 21.9195 105.599 21.4335 105.613 20.9475C105.614 20.7055 105.616 20.4635 105.618 20.2141C105.661 18.9539 105.714 18.3651 106.5 17.3359C107.397 16.6866 107.836 16.6349 108.92 16.8Z" fill="#2E378D"/>
<path d="M69.965 18.1125C70.3364 18.0968 70.3364 18.0968 70.7154 18.0808C71.4 18.2 71.4 18.2 71.9064 18.6474C72.3493 19.5403 72.3223 20.2183 72.2925 21.21C72.285 21.5377 72.2774 21.8655 72.2696 22.2031C72.2598 22.4529 72.2501 22.7027 72.24 22.96C72.6096 22.96 72.9792 22.96 73.36 22.96C73.3705 22.7102 73.381 22.4605 73.3918 22.2031C73.4102 21.8754 73.4286 21.5477 73.4475 21.21C73.4638 20.8852 73.48 20.5603 73.4968 20.2256C73.6472 19.2744 73.776 18.8502 74.48 18.2C75.0838 18.0611 75.0838 18.0611 75.74 18.0775C75.9566 18.0779 76.1732 18.0782 76.3963 18.0786C77.1212 18.2244 77.3758 18.479 77.84 19.04C77.6552 19.2248 77.4704 19.4096 77.28 19.6C77.2241 20.4333 77.2022 21.2347 77.21 22.0675C77.2079 22.2936 77.2057 22.5198 77.2035 22.7527C77.2046 23.0833 77.2046 23.0833 77.2057 23.4205C77.2063 23.6207 77.2069 23.821 77.2076 24.0273C77.2714 24.7941 77.2714 24.7941 77.84 26.04C76.5464 26.04 75.2528 26.04 73.92 26.04C73.8276 25.6704 73.7352 25.3008 73.64 24.92C73.5267 25.0532 73.4134 25.1864 73.2966 25.3236C72.4331 26.0825 71.3979 26.1106 70.28 26.04C69.462 25.5458 69.0259 25.2116 68.6 24.36C68.5799 23.5991 68.574 22.8456 68.5825 22.085C68.5838 21.8739 68.5851 21.6627 68.5864 21.4452C68.5897 20.9234 68.5947 20.4017 68.6 19.88C68.4152 19.7876 68.2304 19.6952 68.04 19.6C68.3509 18.2235 68.5494 18.1515 69.965 18.1125Z" fill="#2F388D"/>
<path d="M60.7602 17.92C61.463 18.5003 61.7599 19.0268 62.0497 19.8833C62.1593 20.2013 62.1593 20.2013 62.2712 20.5258C62.3443 20.7458 62.4174 20.9658 62.4927 21.1925C62.569 21.4157 62.6454 21.639 62.724 21.869C62.9116 22.4186 63.0962 22.9692 63.2802 23.52C63.7873 23.0129 63.6671 22.2284 63.7177 21.5425C63.7411 21.2332 63.7646 20.9238 63.7888 20.6051C63.8142 20.2462 63.8142 20.2462 63.8402 19.88C63.4706 19.88 63.101 19.88 62.7202 19.88C62.8807 19.0772 62.9614 18.7988 63.5602 18.2C64.1366 18.1158 64.1366 18.1158 64.8027 18.1125C65.1313 18.1055 65.1313 18.1055 65.4666 18.0983C66.0802 18.2 66.0802 18.2 66.5735 18.4876C67.1183 19.3556 67.0413 20.2531 67.0252 21.245C67.0284 21.4431 67.0317 21.6413 67.035 21.8455C67.028 23.1077 66.8561 23.9189 66.0802 24.92C64.7678 25.8622 63.6823 26.0784 62.0902 26.0575C61.8404 26.055 61.5906 26.0524 61.3333 26.0498C61.1442 26.0466 60.955 26.0433 60.7602 26.04C60.6868 25.8408 60.6134 25.6416 60.5377 25.4364C60.2047 24.5347 59.8699 23.6336 59.5352 22.7325C59.4197 22.419 59.3042 22.1055 59.1852 21.7826C59.0733 21.4821 58.9614 21.1816 58.8461 20.872C58.7435 20.5949 58.6408 20.3178 58.5351 20.0322C58.2471 19.2714 58.2471 19.2714 57.6802 18.48C58.7994 17.657 59.4225 17.5129 60.7602 17.92Z" fill="#2F388D"/>
<path d="M15.9601 19.04C16.1783 19.2122 16.1783 19.2122 16.4009 19.3879C18.4379 20.9618 19.8145 21.5019 22.4001 21.28C23.1966 21.1567 23.9881 21.0094 24.7801 20.86C29.6613 19.9444 29.6613 19.9444 31.6401 21.28C31.8249 21.5572 32.0097 21.8344 32.2001 22.12C32.0344 22.2049 31.8687 22.2897 31.6981 22.3771C30.3393 23.0974 29.3172 23.7887 28.2801 24.92C28.0029 25.0586 28.0029 25.0586 27.7201 25.2C27.8459 23.8916 28.0054 23.1315 28.8401 22.12C28.673 22.1507 28.5059 22.1814 28.3337 22.213C27.8056 22.3095 27.2773 22.4049 26.7488 22.4996C26.0359 22.6297 25.3249 22.7647 24.6138 22.9043C18.6799 24.0458 18.6799 24.0458 16.8657 23.1285C16.2401 22.68 16.2401 22.68 15.9601 22.12C15.9404 21.5954 15.9365 21.07 15.9426 20.545C15.9451 20.2642 15.9476 19.9834 15.9502 19.6941C15.9535 19.4783 15.9567 19.2624 15.9601 19.04Z" fill="#2C368F"/>
<path d="M35.3675 17.64C35.5743 17.6458 35.7811 17.6515 35.9942 17.6575C36.8081 17.969 36.8808 18.2032 37.3439 18.9131C37.9603 19.6796 38.2503 19.8616 39.2359 20.0271C40.3244 20.0427 41.4037 20.0106 42.49 19.95C48.134 19.6919 48.134 19.6919 50.3125 21.2625C50.68 21.84 50.68 21.84 50.61 22.47C50.506 22.7125 50.506 22.7125 50.4 22.96C50.2354 22.7694 50.2354 22.7694 50.0675 22.575C48.7752 21.4164 47.2947 21.4471 45.6444 21.4659C44.0453 21.5617 42.4821 21.9264 40.9237 22.2814C39.4727 22.6053 38.1686 22.7857 36.68 22.68C35.9192 21.9192 35.9181 21.2228 35.7448 20.1862C35.5946 19.4963 35.5946 19.4963 34.72 19.04C34.1462 18.9136 34.1462 18.9136 33.5475 18.865C33.1952 18.8303 32.8429 18.7957 32.48 18.76C33.3518 17.8052 34.0865 17.5692 35.3675 17.64Z" fill="#30398F"/>
<path d="M56.0001 17.92C56.6032 18.4344 56.8181 18.8421 56.9058 19.6302C56.9229 20.3453 56.9132 21.055 56.8926 21.77C56.8888 22.0187 56.8851 22.2674 56.8812 22.5236C56.8713 23.1359 56.8575 23.7479 56.8401 24.36C57.2097 24.36 57.5793 24.36 57.9601 24.36C57.8726 24.885 57.8726 24.885 57.6801 25.48C56.7801 26.08 56.2313 26.1241 55.17 26.1691C54.2737 25.9661 54.0022 25.682 53.4801 24.92C53.3167 23.9823 53.3105 23.0528 53.3051 22.1025C53.298 21.5975 53.2886 21.0926 53.2767 20.5877C53.275 20.3646 53.2734 20.1415 53.2716 19.9117C53.235 19.2356 53.235 19.2356 52.6401 18.48C53.8273 17.5807 54.5695 17.5226 56.0001 17.92Z" fill="#2D378D"/>
<path d="M18.7424 13.65C19.3199 14 19.3199 14 19.5474 14.595C19.5648 14.7682 19.5821 14.9415 19.5999 15.12C19.2303 15.0276 18.8607 14.9352 18.4799 14.84C18.4799 14.6552 18.4799 14.4704 18.4799 14.28C16.2901 14.4432 14.6427 15.3357 12.799 16.4428C10.5095 17.8118 8.54958 18.1747 5.87994 17.92C4.3654 17.5385 2.83108 17.0558 1.67995 15.96C1.53211 15.1868 1.62787 14.5142 1.67995 13.72C2.81022 14.2616 3.85498 14.9224 4.91744 15.5848C5.54619 15.9304 6.02026 16.114 6.71994 16.24C6.90619 16.275 7.09243 16.31 7.28432 16.3461C9.48698 16.5271 11.0803 15.5658 12.9543 14.5447C14.883 13.5068 16.5841 13.0989 18.7424 13.65Z" fill="#373A8B"/>
<path d="M35.5601 5.31999C35.3226 5.45246 35.0851 5.58492 34.8404 5.7214C33.0498 6.72868 31.3034 7.76928 29.5926 8.90749C28.1887 9.8328 26.8501 10.5526 25.2001 10.92C24.8824 10.9919 24.8824 10.9919 24.5582 11.0652C23.7963 11.2007 23.0945 11.2352 22.3214 11.2394C17.6836 11.3122 14.5682 11.9797 10.6401 14.56C11.247 12.7332 12.4441 12.2622 14.0887 11.433C16.0054 10.5346 17.7964 10.3387 19.8928 10.1936C24.0055 9.89611 27.2184 9.09905 30.7498 6.97265C34.2449 4.88159 34.2449 4.88159 35.5601 5.31999Z" fill="#E83748"/>
<path d="M34.16 9.79999C34.72 10.64 34.72 10.64 35.07 11.34C35.7113 12.2561 36.1877 12.4973 37.24 12.88C38.1715 13.0234 39.0994 13.1061 40.04 13.16C39.2638 13.9362 38.5871 14.039 37.52 14.28C37.162 14.2569 36.8039 14.2338 36.435 14.21C34.9098 14.1746 33.8816 15.0009 32.76 15.96C32.1999 16.5442 31.6764 17.14 31.1675 17.7691C31.0462 17.9113 30.925 18.0535 30.8 18.2C30.7076 18.2 30.6152 18.2 30.52 18.2C30.5597 16.0594 31.4283 14.797 32.76 13.16C32.9127 13.0214 33.0654 12.8828 33.2227 12.74C33.7174 12.1893 33.7965 11.7295 33.9325 11.0075C33.9769 10.7812 34.0213 10.5549 34.0671 10.3217C34.0977 10.1495 34.1284 9.97737 34.16 9.79999Z" fill="#353A8D"/>
<path d="M64.6649 14.4801C65.5506 15.0341 66.0494 15.6623 66.6402 16.52C66.6402 16.6124 66.6402 16.7048 66.6402 16.8C65.5288 16.8069 64.4174 16.812 63.306 16.8153C62.9276 16.8168 62.5493 16.8187 62.1709 16.8211C61.6282 16.8245 61.0854 16.8259 60.5426 16.8273C60.0521 16.8295 60.0521 16.8295 59.5517 16.8318C58.8002 16.8 58.8002 16.8 58.5202 16.52C58.4327 15.715 58.4327 15.715 58.5202 14.84C60.2638 13.0964 62.6456 13.5054 64.6649 14.4801Z" fill="#2F388D"/>
<path d="M42.5599 8.39999C42.7595 8.48084 42.9591 8.56169 43.1647 8.64499C44.7763 9.28342 46.4076 9.87288 48.0549 10.4125C48.7199 10.64 48.7199 10.64 48.9999 10.92C48.8822 12.3907 48.5956 13.5619 47.8799 14.84C47.1974 15.1725 47.1974 15.1725 46.4799 15.12C46.1066 14.7467 45.7332 14.3733 45.3599 14C45.0942 14 44.8286 14 44.5549 14C43.382 14 42.9036 13.6069 41.9999 12.88C41.3349 12.11 41.3349 12.11 40.8799 11.48C41.678 11.7944 42.4511 12.1224 43.2249 12.495C44.2946 12.9007 45.0668 12.9494 46.1999 12.88C46.2923 13.2496 46.3847 13.6192 46.4799 14C46.9349 13.6861 46.9349 13.6861 47.3199 13.16C47.3367 12.6002 47.3381 12.0397 47.3199 11.48C47.0232 11.328 46.7265 11.1761 46.4208 11.0195C46.0321 10.8173 45.6435 10.6149 45.2549 10.4125C45.0593 10.3127 44.8636 10.2129 44.6621 10.1101C44.4744 10.0117 44.2867 9.91336 44.0933 9.81203C43.8338 9.67786 43.8338 9.67786 43.569 9.54098C43.1199 9.23999 43.1199 9.23999 42.5599 8.39999Z" fill="#373F91"/>
<path d="M18.4802 14.28C18.4802 14.3724 18.4802 14.4648 18.4802 14.56C17.9951 14.6553 17.9951 14.6553 17.5002 14.7525C15.899 15.1549 14.6991 16.0354 13.3581 16.9652C13.1427 17.1128 12.9272 17.2604 12.7052 17.4125C12.511 17.5493 12.3168 17.6861 12.1167 17.827C9.92942 19.1086 7.32603 19.1048 4.90783 18.5281C3.72737 18.1437 2.71588 17.7705 1.68018 17.08C1.68018 16.7104 1.68018 16.3408 1.68018 15.96C1.83646 16.0401 1.99275 16.1203 2.15377 16.2028C4.83537 17.5187 7.44459 18.2467 10.3996 17.383C12.0654 16.723 13.5944 15.8673 15.1038 14.9056C16.2355 14.2271 17.1882 14.2556 18.4802 14.28Z" fill="#E73B4C"/>
<path d="M34.16 12.32C34.2524 12.5972 34.3448 12.8744 34.44 13.16C34.2494 13.2871 34.0589 13.4141 33.8625 13.545C32.889 14.4149 32.2373 15.3716 31.5142 16.4522C31.08 17.08 31.08 17.08 30.52 17.64C30.6603 16.3414 30.9735 15.5574 31.745 14.5075C31.9147 14.2725 32.0843 14.0376 32.2591 13.7955C33.4222 12.32 33.4222 12.32 34.16 12.32Z" fill="#E53A4D"/>
<path d="M13.4401 11.76C13.6249 11.8524 13.8097 11.9448 14.0001 12.04C13.0286 13.133 11.8855 13.8224 10.6401 14.56C10.9002 13.4224 11.373 12.9675 12.3201 12.355C12.9151 11.9897 12.9151 11.9897 13.4401 11.76Z" fill="#DC4051"/>
<path d="M14.5602 12.04C15.1202 12.32 15.1202 12.32 15.4002 12.88C14.9105 13.0615 14.4204 13.2422 13.9302 13.4225C13.5209 13.5736 13.5209 13.5736 13.1033 13.7277C12.4701 13.9479 11.8532 14.1323 11.2002 14.28C12.1206 13.2062 13.2306 12.5091 14.5602 12.04Z" fill="#FDEDDC"/>
<path d="M39.1999 6.15997C39.8467 6.25237 40.4935 6.34477 41.1599 6.43997C41.1599 6.71717 41.1599 6.99437 41.1599 7.27997C40.2359 7.27997 39.3119 7.27997 38.3599 7.27997C38.6371 6.91037 38.9143 6.54077 39.1999 6.15997Z" fill="#373F90"/>
<path d="M38.9199 7.84003C39.3819 7.84003 39.8439 7.84003 40.3199 7.84003C40.3199 8.20963 40.3199 8.57923 40.3199 8.96003C39.9503 8.96003 39.5807 8.96003 39.1999 8.96003C39.1075 8.59043 39.0151 8.22083 38.9199 7.84003Z" fill="#313A91"/>
</g>
<defs>
<clipPath id="clip0_3138_9584">
<rect width="112" height="28" fill="white"/>
</clipPath>
</defs>
</svg>
